PathFileType  4	(X/Y/Z) C:\Users\antoi\Documents\MyRepositories\mobilecap\ResultsAnalysis
DataRate	CameraRate	NumFrames	NumMarkers	Units	OrigDataRate	OrigDataStartFrame	OrigNumFrames
100.0	100.0	4	51	mm	100.0	91	145
Frame#	Time	r_knee			r_shank_antsup			r_ankle			r_calc			r_5meta			r_toe			L_knee			L_shank_antsup			L_ankle			L_calc			L_5meta			L_toe			r_sh2			r_sh3			r_sh4			L_sh2			L_sh3			r_thigh1			r_thigh2			r_thigh3			r_thigh4			r_thigh5			L_thigh1			L_thigh2			L_thigh3			L_thigh4			r.ASIS			r.PSIS			L.ASIS			L.PSIS			C7			R_Shoulder			L_Shoulder			R_Sternum			L_Sternum			R_humerus			R_elbow_med			R_elbow_lat			R_forearm			R_wrist_radius			R_wrist_ulna			L_humerus			L_elbow_med			L_elbow_lat			L_forearm			L_wrist_radius			L_wrist_ulna			R_HJC			L_HJC			R_HJC_reg			L_HJC_reg			
		X1	Y1	Z1	X2	Y2	Z2	X3	Y3	Z3	X4	Y4	Z4	X5	Y5	Z5	X6	Y6	Z6	X7	Y7	Z7	X8	Y8	Z8	X9	Y9	Z9	X10	Y10	Z10	X11	Y11	Z11	X12	Y12	Z12	X13	Y13	Z13	X14	Y14	Z14	X15	Y15	Z15	X16	Y16	Z16	X17	Y17	Z17	X18	Y18	Z18	X19	Y19	Z19	X20	Y20	Z20	X21	Y21	Z21	X22	Y22	Z22	X23	Y23	Z23	X24	Y24	Z24	X25	Y25	Z25	X26	Y26	Z26	X27	Y27	Z27	X28	Y28	Z28	X29	Y29	Z29	X30	Y30	Z30	X31	Y31	Z31	X32	Y32	Z32	X33	Y33	Z33	X34	Y34	Z34	X35	Y35	Z35	X36	Y36	Z36	X37	Y37	Z37	X38	Y38	Z38	X39	Y39	Z39	X40	Y40	Z40	X41	Y41	Z41	X42	Y42	Z42	X43	Y43	Z43	X44	Y44	Z44	X45	Y45	Z45	X46	Y46	Z46	X47	Y47	Z47	X48	Y48	Z48	X49	Y49	Z49	X50	Y50	Z50	X51	Y51	Z51	

91	0.90000000	984.93156	510.32301	-53.27323	991.80258	431.49423	-71.70152	722.03675	221.20626	-83.08368	651.70640	244.95847	-124.08644	755.69155	103.24167	-56.81592	813.11438	94.72583	-108.54766	861.09574	493.31568	-347.44531	887.79069	396.76158	-344.47322	810.71387	95.93161	-295.53001	744.43818	63.56820	-244.54897	913.56567	40.39180	-339.31825	956.45125	61.52159	-285.31383	899.23522	359.16789	-50.05956	936.36578	491.41577	-41.71014	851.68124	417.84616	-45.29262	796.93776	410.86316	-348.14223	791.08889	288.05936	-344.15820	931.36870	824.15965	-42.97062	967.54169	718.07742	-36.42498	918.44939	678.36483	-19.56948	823.27547	786.26904	-42.38685	866.23263	676.81237	-45.36355	772.87875	751.45941	-375.74569	790.66465	616.60133	-349.41988	884.75536	759.19028	-411.39418	898.52491	625.81058	-378.00240	919.15342	968.81251	-99.15946	730.39786	1005.75895	-180.01871	932.70775	956.44305	-350.09471	726.12986	1012.72505	-281.22653	724.25820	1414.38195	-256.09972	825.49576	1392.25319	-75.53160	810.57511	1374.29517	-434.19291	864.36535	1390.57320	-234.58976	868.69203	1389.47829	-276.69298	846.34006	1257.29493	-13.97428	812.53628	1041.47638	-52.88877	826.57032	1058.77441	13.07649	922.65414	955.07050	31.97809	983.99857	833.48225	37.49346	960.92983	822.63111	63.45327	843.50170	1256.43148	-484.85763	813.46862	1022.00064	-420.02641	840.10009	1041.98196	-492.34645	913.54369	952.57672	-488.44048	961.32472	799.80428	-495.82770	941.48115	797.90601	-521.74853	842.46706	888.64991	-123.01329	847.79135	886.01897	-329.39042	857.54547	881.00742	-136.73444	850.56357	892.39868	-302.25954	
92	0.91000000	1002.17491	513.78595	-55.26488	1011.55496	435.49031	-73.83169	750.65226	213.65615	-83.36622	678.59191	234.62435	-123.26392	790.22857	97.41981	-57.91026	847.50962	92.13952	-110.30153	862.81329	493.35097	-347.34777	889.25778	396.83537	-344.44827	810.69667	96.26130	-295.45662	744.52706	63.62642	-244.52321	913.57580	40.38582	-339.34521	956.53305	61.48745	-285.33124	922.14951	359.09679	-51.68325	953.96231	492.81674	-43.34080	872.30891	415.81409	-45.96208	798.49919	411.42382	-347.95028	791.91898	288.76450	-344.06292	943.30755	827.23775	-43.85732	981.81256	721.41876	-37.99861	933.35336	681.09935	-19.63353	836.65193	787.35981	-41.44603	880.74687	678.62663	-44.35600	778.31856	753.01723	-374.76279	794.46814	617.89808	-348.39588	890.36648	758.90915	-411.36380	902.43780	625.34499	-377.85667	929.02241	970.71267	-100.65160	739.62799	1006.91276	-179.66336	940.84315	956.65510	-351.55860	734.82392	1013.30204	-280.81510	733.48967	1415.20394	-257.59582	833.44387	1393.10699	-76.43328	820.51439	1375.83369	-435.14067	873.28329	1391.61632	-235.32023	877.84744	1390.58898	-277.39081	852.45432	1257.94715	-14.37103	818.41648	1042.49441	-54.86890	830.11316	1059.69665	12.14434	923.57481	954.55086	34.52691	982.26644	831.97806	42.88178	958.34581	821.61393	67.95475	855.62859	1258.82927	-486.03888	832.04480	1023.14530	-422.28068	858.68889	1044.31571	-494.50631	935.17834	957.61926	-489.20245	989.13621	806.93034	-495.72480	969.39917	804.20362	-521.94826	852.45532	890.26302	-123.10618	855.95131	886.37482	-329.50334	867.13568	882.46939	-137.40873	859.27140	892.92250	-302.93964	
93	0.92000000	1018.95822	516.97883	-57.21907	1030.78783	439.27287	-75.95261	779.77606	205.65611	-83.87275	706.26010	223.68833	-122.78646	825.30934	91.51782	-59.19273	882.34184	89.49001	-112.13929	864.63305	493.37259	-347.24905	890.80742	396.89004	-344.43424	810.71119	96.61076	-295.38574	744.58359	63.71752	-244.49756	913.57437	40.37102	-339.37894	956.58286	61.43879	-285.34953	944.91388	358.84236	-53.45897	970.97866	493.81540	-44.90798	892.70881	413.31439	-46.69345	800.13079	411.99192	-347.74078	792.80726	289.43437	-343.91401	955.28622	830.11963	-44.85537	995.84112	724.61532	-39.62976	948.05844	683.75738	-19.68399	850.14973	788.42275	-40.39906	895.14003	680.40341	-43.18888	783.74501	754.51028	-373.73037	798.29833	619.09962	-347.38022	895.86257	758.61654	-411.29417	906.30707	624.87204	-377.72210	938.87567	972.31815	-102.05129	748.89234	1007.96290	-179.24353	948.92914	956.65230	-352.91478	743.53368	1013.84580	-280.31988	742.71699	1415.85858	-259.06364	841.39246	1393.76535	-77.30780	830.47941	1377.17781	-436.06664	882.20402	1392.49604	-236.03707	886.96878	1391.56914	-278.07426	858.39482	1258.44573	-14.63697	824.47069	1043.29398	-56.67497	833.74092	1060.53859	11.26582	924.39743	954.00375	37.16716	980.44946	830.55481	48.47576	955.52249	820.64068	72.36560	867.75735	1261.08461	-487.25065	850.64797	1024.26124	-424.42982	876.99924	1046.67830	-496.60760	956.49236	962.80933	-490.00591	1016.57325	814.46403	-495.50777	996.87374	810.87708	-521.96420	862.35348	891.66657	-123.15662	864.02878	886.59012	-329.55219	876.66564	883.66527	-138.02698	867.88793	893.29640	-303.54485	
94	0.93000000	1035.22035	519.87919	-59.11710	1049.42323	442.80290	-78.03164	809.40261	197.30949	-84.63433	734.72324	212.17404	-122.74162	860.86500	85.65623	-60.62876	917.55866	86.87913	-114.01829	866.66701	493.39288	-347.15021	892.48073	396.90982	-344.41769	810.77363	96.95982	-295.30206	744.60551	63.83509	-244.46050	913.56532	40.34585	-339.41663	956.60591	61.37587	-285.36701	967.47817	358.43652	-55.37210	987.36430	494.39926	-46.42812	912.85543	410.35427	-47.51294	801.87951	412.54749	-347.53168	793.78962	290.05701	-343.71945	967.27548	832.78060	-45.97829	1009.55257	727.67089	-41.31211	962.53561	686.32527	-19.79411	863.57013	789.50557	-39.23251	909.36718	682.16041	-41.91502	789.27846	755.86462	-372.70146	802.23228	620.17429	-346.42170	901.33277	758.30571	-411.17917	910.17211	624.40521	-377.58926	948.69866	973.60888	-103.34956	758.20868	1008.91390	-178.79220	956.98085	956.42678	-354.12364	752.27312	1014.35136	-279.78096	751.95622	1416.32782	-260.49067	849.37014	1394.22268	-78.15875	840.48773	1378.30389	-436.97369	891.15030	1393.18345	-236.73310	896.07783	1392.37997	-278.74058	864.21472	1258.78018	-14.81272	830.66307	1043.88524	-58.26258	837.46969	1061.30150	10.42100	925.16373	953.41992	39.85091	978.58715	829.18361	54.24722	952.48869	819.69234	76.61667	879.88919	1263.16547	-488.47221	869.12788	1025.38872	-426.50315	895.02642	1049.03282	-498.63094	977.46695	968.08786	-490.85011	1043.56092	822.33019	-495.18509	1023.87867	817.83000	-521.80716	872.13846	892.85056	-123.16536	872.04251	886.65632	-329.53904	886.12693	884.61301	-138.56188	876.40002	893.52080	-304.02949	
